<?xml version="1.0" encoding="UTF-8"?>
<svg width="171px" height="178px" viewBox="0 0 171 178" version="1.1" xmlns="http://www.w3.org/2000/svg" xmlns:xlink="http://www.w3.org/1999/xlink">
    <title>undraw_online_wishes_dlmr</title>
    <g id="Page-1" stroke="none" stroke-width="1" fill="none" fill-rule="evenodd">
        <g id="undraw_online_wishes_dlmr" transform="translate(0.104790, 0.261375)" fill-rule="nonzero">
            <polygon id="Path" fill="#FB9257" points="167.50221 43.2906255 167.50221 129.836625 144.62321 175.995625 144.62321 176.000625 143.89821 177.457625 83.32821 173.457625 60.04421 171.917625 6.00421 168.347625 6.00421 64.8236255 60.04421 66.3476255 84.21021 67.0306255 145.34821 68.7576255"></polygon>
            <polygon id="Path" fill="#000000" opacity="0.1" points="167.50221 48.3966255 167.50221 129.836625 161.91221 141.112625 161.91221 141.116625 156.18021 152.674625 156.18021 152.678625 144.62321 175.995625 145.91521 89.4496255 146.17621 71.9916255 157.16621 59.8336255 157.16621 59.8296255 161.95721 54.5296255"></polygon>
            <polygon id="Path" fill="#FB9257" points="170.60821 20.3086255 170.60821 50.5376255 167.50221 55.4856255 161.95321 64.3266255 157.03821 72.1576255 146.17621 89.4626255 145.91521 89.4496255 1.24221 82.0086255 1.24221 52.1936255 1.60721 51.8006255 18.87921 33.1036255 25.13121 26.3376255 36.44021 14.0966255"></polygon>
            <polygon id="Path" fill="#000000" opacity="0.1" points="146.17621 59.6476255 146.17621 89.4626255 1.24221 82.0086255 1.24221 52.1936255 1.60721 51.8006255"></polygon>
            <polygon id="Path" fill="#000000" opacity="0.15" points="170.60821 20.3086255 170.60821 50.5376255 146.17621 89.4626255 146.17621 59.6476255"></polygon>
            <polygon id="Path" fill="#2F2E41" points="161.97021 34.2176255 161.95721 54.5296255 161.95321 64.3266255 161.91221 141.112625 161.91221 141.116625 156.18021 152.674625 157.03821 72.1576255 157.16621 59.8336255 157.16621 59.8296255 157.36121 41.6386255 18.87921 33.1036255 25.13121 26.3376255"></polygon>
            <polygon id="Path" fill="#2F2E41" points="94.00021 35.2156255 84.29721 56.2886255 84.21021 67.0306255 83.32821 173.457625 60.04421 171.917625 60.04421 54.8856255 72.46721 35.2156255"></polygon>
            <path d="M62.04521,36.6338355 C56.4389823,38.4990593 50.414245,38.7105616 44.69102,37.2430655 C43.5765502,37.0272526 42.5316003,36.5426761 41.64689,35.8314055 C40.6951254,34.7798856 40.0446322,33.4910976 39.76396,32.1008555 C38.7518292,29.228159 38.1910303,26.2159532 38.10153,23.1714855 C38.17111,20.1316855 39.33417,16.9592255 41.81414,15.1999855 C42.3186508,14.8951655 42.791164,14.5402864 43.22452,14.1407255 C43.7419791,13.4879182 44.114017,12.7321038 44.31573,11.9238755 C46.01223,6.86330549 49.301,1.51954549 54.57654,0.70947549 C59.44388,-0.0379145098 63.87362,3.36140549 67.62386,6.55285549 L75.85475,13.5573555 C77.7240914,8.53266465 82.4889162,5.17309214 87.8495714,5.10007244 C93.2102265,5.02705275 98.0647908,8.25559559 100.0703,13.2275055 C105.057846,7.60889734 111.344066,3.29559248 118.38091,0.66363549 C119.94025,0.0825454902 121.77167,-0.39056451 123.19308,0.47473549 C124.071361,1.12279336 124.737856,2.01662975 125.10836,3.04331549 C127.348789,7.9476316 128.563009,13.2581784 128.67645,18.6488155 C129.860234,18.2436636 131.167933,18.6947787 131.85013,19.7436355 C132.487672,20.7824576 132.851129,21.9660953 132.90646,23.1836955 C133.126004,25.0649037 133.234656,26.9573201 133.234656,28.8512955 C133.23365,30.8485855 133.04851,33.0059855 131.74677,34.5207955 C130.06469,36.4781855 127.16051,36.6851855 124.5804,36.7465755 C125.82281,37.8492555 125.2162,40.0699755 123.84202,41.0033155 C122.46784,41.9366555 120.6904,41.9538155 119.02931,41.9376455 C112.62548,41.8753055 105.8135,41.6932555 100.48666,38.1383155 C98.38339,36.7346755 96.62179,34.8653655 94.51301,33.4698755 C89.34442,30.0496055 82.85515,29.8861355 76.87237,30.1691555 C71.47268,30.4245955 67.18658,34.9120155 62.04521,36.6338355 Z" id="Path" fill="#2F2E41"></path>
            <path d="M60.87221,35.2156655 C60.87221,35.2156655 7.45374,42.6694055 0,74.9689455 L11.18061,73.3125555 L19.04845,87.3918455 C19.04845,87.3918455 27.33038,55.9204955 51.76209,48.4667555 C76.1938,41.0130155 84.88982,39.7707555 84.88982,39.7707555 C84.88982,39.7707555 101.86782,43.9117555 117.18936,93.1892255 L125.88536,81.1804255 L141.20694,84.4931955 C141.20694,84.4931955 130.02633,45.9821955 99.79727,35.2156655 L60.87221,35.2156655 Z" id="Path" fill="#2F2E41"></path>
        </g>
    </g>
</svg>